<svg xmlns="http://www.w3.org/2000/svg" viewBox="0 0 64 64" width="64" height="64">
  <rect width="64" height="64" rx="12" fill="#e01919"/>
  <g transform="translate(7.917,49.638) scale(0.04741,-0.04741)" fill="#ff9500">
    <path d="M664 584 569 546C596 506 628 435 649 393L747 434C729 470 691 546 664 584ZM787 633 690 593C718 554 752 484 774 442L870 483C852 518 813 594 787 633ZM734 711 593 836C575 809 538 774 505 741C437 677 309 571 229 506C123 419 117 359 219 271C310 193 454 70 509 12C541 -21 575 -56 607 -92L748 39C648 134 452 287 386 344C337 387 335 396 385 438C447 493 573 589 635 636C663 658 697 684 734 711Z"/>
  </g>
</svg>
