<svg xmlns="http://www.w3.org/2000/svg" viewBox="0 0 64 64" width="64" height="64">
  <rect width="64" height="64" rx="12" fill="#e01919"/>
  <path d="M 32.00 32.00 L 32.00 32.06 L 31.99 32.12 L 31.97 32.18 L 31.95 32.23 L 31.93 32.29 L 31.90 32.34 L 31.86 32.39 L 31.82 32.44 L 31.77 32.49 L 31.72 32.53 L 31.67 32.57 L 31.61 32.60 L 31.55 32.63 L 31.48 32.65 L 31.41 32.67 L 31.34 32.69 L 31.26 32.70 L 31.18 32.70 L 31.10 32.69 L 31.02 32.69 L 30.94 32.67 L 30.86 32.65 L 30.77 32.62 L 30.69 32.58 L 30.61 32.54 L 30.53 32.49 L 30.45 32.44 L 30.37 32.38 L 30.30 32.31 L 30.22 32.23 L 30.15 32.15 L 30.09 32.07 L 30.03 31.97 L 29.97 31.88 L 29.92 31.77 L 29.88 31.66 L 29.84 31.55 L 29.80 31.43 L 29.78 31.31 L 29.76 31.18 L 29.74 31.05 L 29.74 30.92 L 29.74 30.78 L 29.75 30.65 L 29.77 30.51 L 29.79 30.37 L 29.83 30.22 L 29.87 30.08 L 29.92 29.94 L 29.98 29.80 L 30.05 29.66 L 30.13 29.52 L 30.22 29.38 L 30.31 29.25 L 30.42 29.12 L 30.53 28.99 L 30.66 28.87 L 30.79 28.76 L 30.93 28.64 L 31.07 28.54 L 31.23 28.44 L 31.39 28.35 L 31.56 28.26 L 31.73 28.19 L 31.92 28.12 L 32.10 28.06 L 32.30 28.01 L 32.49 27.97 L 32.70 27.94 L 32.90 27.92 L 33.12 27.91 L 33.33 27.91 L 33.54 27.92 L 33.76 27.95 L 33.98 27.98 L 34.20 28.03 L 34.42 28.09 L 34.64 28.16 L 34.86 28.24 L 35.07 28.34 L 35.28 28.45 L 35.49 28.57 L 35.70 28.70 L 35.90 28.84 L 36.09 29.00 L 36.28 29.17 L 36.47 29.34 L 36.64 29.53 L 36.81 29.73 L 36.97 29.94 L 37.12 30.16 L 37.25 30.39 L 37.38 30.63 L 37.50 30.88 L 37.61 31.14 L 37.70 31.40 L 37.78 31.67 L 37.85 31.95 L 37.91 32.23 L 37.95 32.52 L 37.98 32.81 L 37.99 33.11 L 37.99 33.41 L 37.97 33.71 L 37.94 34.02 L 37.89 34.32 L 37.83 34.62 L 37.75 34.93 L 37.65 35.23 L 37.54 35.53 L 37.41 35.83 L 37.27 36.12 L 37.11 36.41 L 36.94 36.69 L 36.75 36.96 L 36.55 37.23 L 36.33 37.49 L 36.09 37.74 L 35.84 37.98 L 35.58 38.21 L 35.31 38.42 L 35.02 38.63 L 34.72 38.82 L 34.41 39.00 L 34.09 39.17 L 33.76 39.32 L 33.41 39.45 L 33.06 39.57 L 32.70 39.67 L 32.34 39.76 L 31.97 39.82 L 31.59 39.87 L 31.20 39.90 L 30.82 39.91 L 30.43 39.91 L 30.04 39.88 L 29.64 39.83 L 29.25 39.77 L 28.86 39.68 L 28.47 39.58 L 28.08 39.45 L 27.70 39.31 L 27.32 39.14 L 26.95 38.96 L 26.58 38.75 L 26.22 38.53 L 25.87 38.29 L 25.54 38.03 L 25.21 37.75 L 24.89 37.45 L 24.59 37.14 L 24.30 36.81 L 24.03 36.46 L 23.77 36.10 L 23.53 35.73 L 23.30 35.34 L 23.10 34.94 L 22.91 34.52 L 22.74 34.10 L 22.59 33.66 L 22.46 33.21 L 22.35 32.76 L 22.27 32.30 L 22.21 31.83 L 22.17 31.36 L 22.15 30.88 L 22.16 30.40 L 22.19 29.91 L 22.24 29.43 L 22.32 28.95 L 22.42 28.47 L 22.54 27.99 L 22.69 27.51 L 22.87 27.04 L 23.06 26.58 L 23.29 26.12 L 23.53 25.68 L 23.80 25.24 L 24.09 24.81 L 24.40 24.40 L 24.73 24.00 L 25.09 23.61 L 25.46 23.24 L 25.86 22.89 L 26.27 22.55 L 26.70 22.24 L 27.15 21.94 L 27.61 21.66 L 28.09 21.41 L 28.59 21.18 L 29.10 20.97 L 29.62 20.78 L 30.15 20.62 L 30.69 20.49 L 31.24 20.38 L 31.80 20.30 L 32.36 20.24 L 32.93 20.21 L 33.50 20.21 L 34.07 20.24 L 34.65 20.29 L 35.22 20.37 L 35.80 20.49 L 36.37 20.63 L 36.93 20.79 L 37.49 20.99 L 38.04 21.21 L 38.58 21.47 L 39.11 21.74 L 39.63 22.05 L 40.14 22.38 L 40.63 22.74 L 41.11 23.12 L 41.57 23.53 L 42.01 23.96 L 42.44 24.42 L 42.84 24.89 L 43.22 25.39 L 43.57 25.91 L 43.91 26.45 L 44.22 27.00 L 44.50 27.57 L 44.75 28.16 L 44.98 28.76 L 45.18 29.38 L 45.35 30.00 L 45.49 30.64 L 45.60 31.29 L 45.68 31.94 L 45.72 32.60 L 45.74 33.26 L 45.72 33.93 L 45.67 34.60 L 45.59 35.26 L 45.47 35.93 L 45.33 36.59 L 45.15 37.24 L 44.93 37.89 L 44.69 38.54 L 44.41 39.17 L 44.11 39.79 L 43.77 40.39 L 43.40 40.98 L 43.00 41.56 L 42.57 42.12 L 42.11 42.66 L 41.63 43.18 L 41.12 43.67 L 40.58 44.14 L 40.02 44.59 L 39.44 45.01 L 38.83 45.41 L 38.21 45.78 L 37.56 46.11 L 36.90 46.42 L 36.21 46.70 L 35.52 46.94 L 34.81 47.15 L 34.09 47.33 L 33.35 47.47 L 32.61 47.58 L 31.86 47.65 L 31.11 47.68 L 30.35 47.68 L 29.59 47.64 L 28.83 47.57 L 28.07 47.46 L 27.32 47.31 L 26.57 47.12 L 25.83 46.90 L 25.10 46.64 L 24.37 46.34 L 23.66 46.01 L 22.97 45.65 L 22.29 45.24 L 21.63 44.81 L 20.98 44.34 L 20.36 43.84 L 19.76 43.31 L 19.19 42.75 L 18.64 42.16 L 18.12 41.54 L 17.63 40.89 L 17.17 40.22 L 16.73 39.53 L 16.34 38.81 L 15.97 38.07 L 15.64 37.32 L 15.35 36.54 L 15.09 35.75 L 14.87 34.94 L 14.69 34.13 L 14.55 33.30 L 14.45 32.46 L 14.39 31.62 L 14.37 30.77 L 14.39 29.92 L 14.45 29.06 L 14.55 28.21 L 14.69 27.36 L 14.88 26.52 L 15.11 25.68 L 15.37 24.86 L 15.68 24.04 L 16.03 23.24 L 16.42 22.45 L 16.84 21.68 L 17.31 20.93 L 17.81 20.20 L 18.35 19.49 L 18.92 18.81 L 19.53 18.15 L 20.17 17.52 L 20.85 16.93 L 21.55 16.36 L 22.28 15.82 L 23.04 15.32 L 23.82 14.86 L 24.63 14.43 L 25.46 14.04 L 26.32 13.69 L 27.19 13.38 L 28.07 13.11 L 28.97 12.89 L 29.89 12.71 L 30.81 12.57 L 31.74 12.47 L 32.68 12.42 L 33.63 12.42 L 34.57 12.46 L 35.52 12.55 L 36.46 12.68 L 37.40 12.86 L 38.33 13.08 L 39.25 13.35 L 40.16 13.67 L 41.06 14.03 L 41.94 14.43 L 42.80 14.88 L 43.65 15.37 L 44.47 15.90 L 45.26 16.47 L 46.04 17.08 L 46.78 17.73 L 47.49 18.41 L 48.17 19.14 L 48.82 19.89 L 49.43 20.68 L 50.00 21.50 L 50.54 22.35 L 51.04 23.22 L 51.49 24.12 L 51.90 25.05 L 52.27 26.00 L 52.59 26.96 L 52.87 27.94 L 53.10 28.94 L 53.28 29.95 L 53.42 30.97 L 53.50 32.00" fill="none" stroke="#ffd400" stroke-width="4"
        stroke-linecap="round" stroke-linejoin="round"/>
</svg>
